<svg xmlns="http://www.w3.org/2000/svg" viewBox="0 0 124 97.17"><defs><style>.cls-1{fill:#ffc;}.cls-2{fill:#fc0;}.cls-3{fill:#fff;}</style></defs><title>Ресурс 1</title><g id="Слой_2" data-name="Слой 2"><g id="Слой_1-2" data-name="Слой 1"><path class="cls-1" d="M.5,96.67V.5h123V86.83a9.84,9.84,0,0,1-9.83,9.84Z"/><path class="cls-2" d="M123,1V86.83a9.35,9.35,0,0,1-9.33,9.34H1V1H123m1-1H0V97.17H113.67A10.34,10.34,0,0,0,124,86.83V0Z"/><path class="cls-3" d="M30,47.5A17.52,17.52,0,0,1,12.5,30c0-.11,0-.23,0-.34a33.35,33.35,0,0,1,16.9-4.75,30.8,30.8,0,0,1,18,5.84A17.4,17.4,0,0,1,30,47.5Z"/><path class="cls-2" d="M29.42,25.41A30.25,30.25,0,0,1,47,31,17,17,0,0,1,13,30v0a32.84,32.84,0,0,1,16.42-4.55m0-1a33.75,33.75,0,0,0-17.39,5c0,.21,0,.42,0,.63a18,18,0,0,0,36,.5,31.3,31.3,0,0,0-18.55-6.09Z"/><path class="cls-3" d="M93,48.5A17.52,17.52,0,0,1,75.5,31c0-.11,0-.23,0-.34a33.35,33.35,0,0,1,16.9-4.75,30.8,30.8,0,0,1,18,5.84A17.4,17.4,0,0,1,93,48.5Z"/><path class="cls-2" d="M92.42,26.41A30.25,30.25,0,0,1,110,32,17,17,0,0,1,76,31v0a32.84,32.84,0,0,1,16.42-4.55m0-1a33.75,33.75,0,0,0-17.39,5c0,.21,0,.42,0,.63a18,18,0,0,0,36,.5,31.3,31.3,0,0,0-18.55-6.09Z"/><path class="cls-3" d="M45.5,82.5v-9h33v5a4,4,0,0,1-4,4Z"/><path class="cls-2" d="M78,74v4.54A3.46,3.46,0,0,1,74.54,82H46V74H78m1-1H45V83H74.54A4.46,4.46,0,0,0,79,78.54V73Z"/><circle class="cls-3" cx="30" cy="30" r="9.5"/><path class="cls-2" d="M30,21a9,9,0,1,1-9,9,9,9,0,0,1,9-9m0-1A10,10,0,1,0,40,30,10,10,0,0,0,30,20Z"/><path class="cls-1" d="M47.49,29.55a31.75,31.75,0,0,0-18.07-5.64,34.34,34.34,0,0,0-16.83,4.55,17.49,17.49,0,0,1,34.9,1.09Z"/><path class="cls-2" d="M30,13A17,17,0,0,1,46.94,28.58a32.18,32.18,0,0,0-17.52-5.17,34.69,34.69,0,0,0-16.23,4.15A16.92,16.92,0,0,1,30,13m0-1A18,18,0,0,0,12,29.37a33.75,33.75,0,0,1,17.39-5A31.3,31.3,0,0,1,48,30.5c0-.17,0-.33,0-.5A18,18,0,0,0,30,12Z"/><circle class="cls-3" cx="93" cy="30" r="9.5"/><path class="cls-2" d="M93,21a9,9,0,1,1-9,9,9,9,0,0,1,9-9m0-1a10,10,0,1,0,10,10A10,10,0,0,0,93,20Z"/><path class="cls-1" d="M110.49,30.55a31.75,31.75,0,0,0-18.07-5.64,34.34,34.34,0,0,0-16.83,4.55,17.49,17.49,0,0,1,34.9,1.09Z"/><path class="cls-2" d="M93,14a17,17,0,0,1,16.94,15.58,32.18,32.18,0,0,0-17.52-5.17,34.69,34.69,0,0,0-16.23,4.15A16.92,16.92,0,0,1,93,14m0-1A18,18,0,0,0,75,30.37a33.75,33.75,0,0,1,17.39-5A31.3,31.3,0,0,1,111,31.5c0-.17,0-.33,0-.5A18,18,0,0,0,93,13Z"/></g></g></svg>