<svg xmlns="http://www.w3.org/2000/svg" viewBox="0 0 69.73 65.31"><defs><style>.cls-1,.cls-3{fill:#fff;}.cls-1{stroke:#bcadff;}.cls-1,.cls-2,.cls-3{stroke-miterlimit:10;}.cls-2{fill:#bcadff;stroke:#fff;}.cls-3{stroke:#ffeb99;}</style></defs><title>Ресурс 2</title><g id="Слой_2" data-name="Слой 2"><g id="Слой_1-2" data-name="Слой 1"><polyline class="cls-1" points="42.82 31.33 29.91 18.42 22.84 25.49 35.75 38.4"/><rect class="cls-2" x="47.39" y="29.44" width="10" height="37.06" transform="translate(-18.57 51.09) rotate(-45)"/><polygon class="cls-3" points="39.48 6.78 43.67 8.91 46.99 5.58 46.26 10.23 50.45 12.36 45.8 13.1 45.07 17.74 42.93 13.55 38.29 14.29 41.61 10.96 39.48 6.78"/><polygon class="cls-3" points="2.93 14.7 8.17 17.37 12.32 13.21 11.4 19.02 16.64 21.69 10.84 22.61 9.92 28.41 7.25 23.18 1.44 24.09 5.6 19.94 2.93 14.7"/><polygon class="cls-3" points="18.17 36.09 23.41 38.76 27.57 34.6 26.65 40.4 31.88 43.07 26.08 43.99 25.16 49.8 22.49 44.56 16.68 45.48 20.84 41.32 18.17 36.09"/><polygon class="cls-3" points="22.11 2.45 25.67 4.26 28.49 1.44 27.86 5.38 31.41 7.19 27.48 7.81 26.85 11.75 25.04 8.2 21.11 8.82 23.92 6 22.11 2.45"/></g></g></svg>