<svg xmlns="http://www.w3.org/2000/svg" viewBox="0 0 268.17 211.13"><defs><style>.cls-1{fill:#5e8668;}</style></defs><title>Run</title><g id="Слой_2" data-name="Слой 2"><g id="Слой_1-2" data-name="Слой 1"><path class="cls-1" d="M89.82,105.44c4.69-13.7,15.41-33.48,31-36.72,14-2.92,28.51,4.63,40,11.81,10.94,6.86,21.23,14.89,33,20.43a58.84,58.84,0,0,0,17.61,5.58c7.32.93,13.79-1.2,20.2-4.55a106.91,106.91,0,0,0,36.32-31.54c1.21-1.64-1.53-3.21-2.72-1.59a102,102,0,0,1-36.79,31.22c-15.65,7.65-31.32,0-44.94-8.45-11.31-7-21.89-15.47-34.09-21-10.26-4.67-23.64-8.24-34.45-3.24C101,73.81,91.51,90.75,86.78,104.6c-.66,1.93,2.39,2.76,3,.84Z"/><path class="cls-1" d="M156.16,113.31C155.29,124,154,134.62,152,145.17c-1.67,9.2-3,19.45-7.66,27.72-4.09,7.31-11,12.58-18.54,16-6.36,2.84-15.14,3-19.92,8.53-1.32,1.54.91,3.78,2.23,2.24,3.26-3.79,8.34-4.16,12.83-5.58a55.82,55.82,0,0,0,10.8-4.66c6.81-3.89,12.73-9.46,16.21-16.56,4.31-8.83,5.77-19.21,7.45-28.8,1.78-10.17,3-20.41,3.88-30.7.16-2-3-2-3.16,0Z"/><path class="cls-1" d="M196.3,119.5c-2.68,10.75-1.43,21.59.63,32.33,2.17,11.29,4.9,22.55,9.31,33.2,3.09,7.46,7.3,18.32,14.53,22.79,3.55,2.19,8.18,2.36,12.22,2.74a141.15,141.15,0,0,0,20.46.36c2-.11,2-3.27,0-3.16a144.19,144.19,0,0,1-16.37,0c-4.65-.3-10.6-.09-14.71-2.64s-6.79-8.18-9-12.32a101.07,101.07,0,0,1-6-13.64,182.3,182.3,0,0,1-7-26.3c-2.15-10.78-3.69-21.66-1-32.49.49-2-2.55-2.81-3-.84Z"/><path class="cls-1" d="M181,70.51a35.26,35.26,0,1,1,35.25-35.26A35.3,35.3,0,0,1,181,70.51Zm0-67.35a32.1,32.1,0,1,0,32.1,32.09A32.13,32.13,0,0,0,181,3.16Z"/><path class="cls-1" d="M192.58,36.31A8.42,8.42,0,1,1,201,27.89,8.42,8.42,0,0,1,192.58,36.31Zm0-14.74a6.32,6.32,0,1,0,6.32,6.32A6.32,6.32,0,0,0,192.58,21.57Z"/><rect class="cls-1" y="95.77" width="59.99" height="3.16"/><rect class="cls-1" x="54.72" y="65.25" width="23.15" height="3.16"/><rect class="cls-1" x="54.72" y="165.22" width="39.99" height="3.16"/><path class="cls-1" d="M166.28,36.31a8.42,8.42,0,1,1,8.41-8.42A8.43,8.43,0,0,1,166.28,36.31Zm0-14.74a6.32,6.32,0,1,0,6.31,6.32A6.33,6.33,0,0,0,166.28,21.57Z"/><path class="cls-1" d="M166.8,31.57A3.16,3.16,0,1,1,170,28.41,3.16,3.16,0,0,1,166.8,31.57Zm0-4.21a1.06,1.06,0,1,0,1,1.05A1,1,0,0,0,166.8,27.36Z"/><path class="cls-1" d="M193.11,31.57a3.16,3.16,0,1,1,3.16-3.16A3.16,3.16,0,0,1,193.11,31.57Zm0-4.21a1.06,1.06,0,1,0,1,1.05A1,1,0,0,0,193.11,27.36Z"/><path class="cls-1" d="M189.6,55.78H171.37l1.25-1.69c.14-.19,3.51-4.63,7.86-4.63s7.72,4.44,7.86,4.63Zm-13.69-2.11h9.14a6,6,0,0,0-9.14,0Z"/></g></g></svg>